<?xml version="1.0" standalone="no"?>
<!DOCTYPE svg PUBLIC "-//W3C//DTD SVG 20010904//EN"
 "http://www.w3.org/TR/2001/REC-SVG-20010904/DTD/svg10.dtd">
<svg version="1.0" xmlns="http://www.w3.org/2000/svg"
 width="450" height="178" viewBox="800 -150 450 1000"
 preserveAspectRatio="xMidYMid meet">

<g transform="translate(0.000000,495.000000) scale(0.100000,-0.100000)"
fill="white" stroke="none">
<path d="M2140 4083 c-161 -16 -382 -76 -534 -146 -722 -334 -1092 -1181 -849
-1942 162 -504 544 -887 1048 -1048 189 -61 265 -72 495 -71 225 0 322 14 500
74 106 35 237 93 222 98 -6 2 -57 -8 -114 -22 -216 -52 -425 -72 -601 -56
-394 34 -694 182 -987 486 -271 282 -382 549 -367 883 18 401 201 747 533
1011 92 74 243 165 253 154 12 -13 171 -360 170 -371 0 -4 -53 -42 -116 -83
-132 -85 -284 -227 -352 -329 -86 -127 -143 -292 -145 -418 -1 -63 2 -74 24
-98 60 -65 187 -100 327 -91 132 8 141 14 198 143 133 297 174 378 202 394 18
10 40 41 61 85 41 83 58 104 88 104 17 0 26 10 39 45 10 24 25 51 35 60 18 16
45 12 53 -8 5 -14 -57 -289 -73 -326 -11 -24 -6 -33 25 -44 6 -2 -22 -102 -63
-226 -41 -122 -72 -224 -70 -226 1 -1 49 -6 105 -10 101 -7 103 -7 113 16 6
13 46 162 90 330 100 389 109 419 123 419 34 -1 182 -49 191 -62 7 -11 -4 -99
-36 -288 l-45 -272 36 7 c20 3 47 9 60 12 23 6 23 4 18 -38 -12 -87 -30 -439
-23 -446 13 -13 134 -15 221 -4 104 14 186 43 229 81 30 27 31 31 29 99 -4
129 -47 251 -142 398 -28 44 -51 90 -51 102 0 12 20 44 46 71 56 60 94 70 159
46 51 -20 50 -18 159 -281 40 -99 79 -180 85 -180 16 0 126 148 187 251 98
166 160 337 191 524 12 75 16 214 20 648 l5 552 -868 -2 c-478 0 -885 -3 -904
-5z m-32 -470 c20 -29 192 -322 192 -327 0 -10 -262 -97 -275 -92 -21 7 -189
356 -177 368 10 10 201 76 224 77 9 1 25 -11 36 -26z"/>
<path d="M8010 3666 l0 -144 -33 33 c-71 71 -202 72 -273 1 -49 -49 -67 -124
-62 -260 4 -119 20 -167 70 -213 66 -60 199 -54 266 13 19 19 36 34 38 34 2 0
4 -18 4 -40 l0 -40 40 0 40 0 0 380 0 380 -45 0 -45 0 0 -144z m-51 -160 c36
-35 51 -86 51 -177 0 -92 -13 -141 -49 -181 -23 -26 -36 -32 -82 -35 -65 -5
-95 9 -123 57 -18 30 -21 52 -21 150 0 174 33 224 143 217 41 -3 59 -10 81
-31z"/>
<path d="M12080 3765 l0 -45 45 0 45 0 0 45 0 45 -45 0 -45 0 0 -45z"/>
<path d="M4704 3770 c-102 -21 -185 -87 -228 -179 -18 -39 -21 -65 -21 -176 0
-119 2 -135 26 -186 15 -31 42 -72 62 -91 124 -124 381 -129 545 -9 l42 31 0
125 0 125 -155 0 -155 0 0 -40 0 -40 110 0 110 0 0 -63 c0 -73 -8 -84 -85
-118 -68 -30 -176 -37 -243 -15 -178 59 -233 356 -92 496 51 51 100 70 181 70
86 0 129 -17 180 -69 l45 -47 42 14 c41 13 41 14 28 40 -44 85 -130 130 -262
137 -49 2 -108 0 -130 -5z"/>
<path d="M9140 3411 l0 -361 45 0 45 0 0 139 0 139 153 4 c131 3 158 7 192 25
79 42 115 105 115 201 0 85 -30 138 -101 177 -54 30 -54 30 -251 33 l-198 4 0
-361z m386 260 c53 -24 79 -75 70 -138 -13 -99 -60 -123 -241 -123 l-125 0 0
140 0 140 128 0 c102 0 135 -4 168 -19z"/>
<path d="M5460 3603 c-26 -9 -58 -44 -72 -76 l-13 -32 -5 50 -5 50 -44 3 -44
3 6 -77 c4 -42 7 -166 7 -276 l0 -198 39 0 39 0 4 183 c3 165 5 186 26 228 24
50 54 69 107 69 34 0 35 1 35 40 0 39 -1 40 -32 39 -18 0 -40 -3 -48 -6z"/>
<path d="M6395 3596 c-22 -8 -52 -30 -67 -48 l-28 -32 0 42 0 42 -45 0 -45 0
0 -385 0 -385 45 0 45 0 0 151 0 150 33 -34 c39 -42 102 -62 171 -53 96 11
147 71 167 196 23 151 -13 295 -85 339 -47 29 -136 37 -191 17z m134 -82 c38
-32 53 -84 53 -189 0 -150 -33 -205 -124 -213 -110 -8 -162 68 -155 228 7 141
50 199 149 200 36 0 53 -6 77 -26z"/>
<path d="M6932 3601 c-56 -15 -108 -56 -133 -108 -19 -38 -25 -68 -27 -145 -7
-173 39 -260 155 -294 94 -27 214 -4 265 53 44 49 62 114 62 224 0 99 -2 111
-29 165 -24 46 -39 63 -76 81 -50 26 -160 38 -217 24z m152 -75 c51 -21 77
-84 78 -188 1 -156 -38 -219 -139 -226 -78 -5 -121 22 -145 93 -23 66 -22 186
0 245 31 80 119 113 206 76z"/>
<path d="M8385 3599 c-52 -12 -109 -59 -138 -112 -19 -37 -22 -57 -22 -162 0
-137 14 -178 82 -234 97 -80 295 -59 360 38 26 39 24 46 -17 55 -26 5 -36 0
-65 -29 -38 -38 -83 -51 -148 -42 -68 9 -127 90 -127 175 l0 22 195 0 195 0 0
53 c0 148 -75 233 -212 242 -35 2 -81 0 -103 -6z m171 -90 c29 -26 54 -77 54
-109 0 -19 -6 -20 -150 -20 -171 0 -169 -1 -127 80 29 59 73 82 145 77 38 -3
59 -10 78 -28z"/>
<path d="M9955 3599 c-52 -12 -109 -59 -138 -112 -19 -37 -22 -57 -22 -162 0
-137 14 -178 82 -234 97 -80 295 -59 360 38 26 39 24 46 -17 55 -26 5 -36 0
-65 -29 -38 -38 -83 -51 -148 -42 -68 9 -127 90 -127 175 l0 22 195 0 195 0 0
53 c0 148 -75 233 -212 242 -35 2 -81 0 -103 -6z m171 -90 c29 -26 54 -77 54
-109 0 -19 -6 -20 -150 -20 -171 0 -169 -1 -127 80 29 59 73 82 145 77 38 -3
59 -10 78 -28z"/>
<path d="M10497 3596 c-60 -17 -94 -48 -108 -100 -23 -84 25 -153 124 -180 29
-8 79 -22 111 -32 100 -28 132 -83 83 -140 -19 -22 -34 -28 -80 -32 -85 -7
-126 5 -164 45 -30 31 -38 34 -68 29 -40 -8 -40 -8 -20 -45 43 -84 165 -120
305 -90 36 8 63 22 91 48 37 36 39 41 39 99 0 99 -43 135 -210 177 -85 22
-118 40 -126 69 -16 65 34 100 134 94 58 -4 68 -8 93 -36 22 -25 37 -32 64
-32 40 0 44 13 20 60 -33 64 -179 97 -288 66z"/>
<path d="M11025 3595 c-93 -33 -129 -122 -123 -299 4 -119 20 -167 70 -213 65
-60 199 -54 265 12 l33 33 0 -149 0 -149 45 0 45 0 0 390 0 390 -40 0 c-38 0
-40 -2 -40 -29 0 -56 -8 -61 -43 -26 -52 52 -134 68 -212 40z m190 -85 c43
-40 58 -98 53 -202 -5 -106 -22 -148 -71 -178 -41 -25 -103 -25 -144 0 -46 27
-67 104 -61 219 7 145 46 195 146 188 38 -3 59 -10 77 -27z"/>
<path d="M12417 3596 c-60 -17 -94 -48 -108 -100 -23 -84 25 -153 124 -180 29
-8 79 -22 111 -32 100 -28 132 -83 83 -140 -19 -22 -34 -28 -80 -32 -85 -7
-126 5 -164 45 -30 31 -38 34 -68 29 -40 -8 -40 -8 -20 -45 43 -84 165 -120
305 -90 36 8 63 22 91 48 37 36 39 41 39 99 0 99 -43 135 -210 177 -85 22
-118 40 -126 69 -16 65 34 100 134 94 58 -4 68 -8 93 -36 22 -25 37 -32 64
-32 40 0 44 13 20 60 -33 64 -179 97 -288 66z"/>
<path d="M12976 3600 c-61 -16 -95 -41 -117 -88 -12 -24 -20 -44 -18 -46 2 -2
25 -7 52 -10 42 -7 47 -5 47 12 0 11 14 32 31 46 24 20 41 26 80 26 86 0 129
-38 129 -114 l0 -33 -112 -7 c-183 -11 -248 -58 -248 -180 0 -99 44 -151 136
-162 74 -9 132 11 181 61 43 45 53 47 53 9 0 -50 69 -86 134 -70 37 9 37 56 2
56 -48 0 -56 29 -56 209 0 193 -11 231 -80 270 -46 26 -152 36 -214 21z m204
-310 c0 -70 -51 -146 -113 -169 -86 -33 -157 3 -157 79 0 33 22 99 33 100 1 0
20 7 42 15 22 8 75 14 118 15 l77 0 0 -40z"/>
<path d="M5622 3373 c3 -252 9 -277 69 -308 82 -43 187 -27 249 37 l40 42 0
-47 0 -47 40 0 40 0 0 275 0 275 -44 0 -45 0 -3 -192 c-3 -214 -9 -236 -67
-275 -23 -15 -49 -23 -78 -23 -102 0 -113 27 -113 290 l0 200 -46 0 -45 0 3
-227z"/>
<path d="M11502 3373 c3 -252 9 -277 69 -308 82 -43 187 -27 249 37 l40 42 0
-47 0 -47 40 0 40 0 0 275 0 275 -44 0 -45 0 -3 -192 c-3 -214 -9 -236 -67
-275 -23 -15 -49 -23 -78 -23 -102 0 -113 27 -113 290 l0 200 -46 0 -45 0 3
-227z"/>
<path d="M12080 3325 l0 -275 45 0 45 0 0 275 0 275 -45 0 -45 0 0 -275z"/>
<path d="M4837 2607 c-48 -45 -87 -88 -87 -94 0 -9 18 -13 58 -13 56 0 61 3
175 81 64 44 117 87 117 95 0 11 -18 14 -87 14 l-88 -1 -88 -82z"/>
<path d="M20236 2381 c-47 -54 -86 -104 -86 -110 0 -7 22 -11 58 -11 l58 0
117 96 c64 52 117 102 117 110 0 11 -18 14 -89 14 l-89 0 -86 -99z"/>
<path d="M11300 1993 c0 -258 -3 -485 -6 -505 l-7 -38 96 0 96 0 6 53 7 52 47
-46 c104 -101 279 -90 375 23 113 131 109 472 -7 596 -58 62 -171 87 -269 58
-62 -18 -102 -45 -129 -90 l-19 -31 0 198 0 197 -95 0 -95 0 0 -467z m417 57
c42 -25 61 -63 75 -153 13 -86 0 -197 -29 -254 -25 -49 -76 -75 -130 -70 -56
6 -88 28 -115 80 -20 37 -23 56 -23 162 0 109 2 125 25 169 41 80 127 109 197
66z"/>
<path d="M12080 2390 l0 -70 95 0 95 0 0 70 0 70 -95 0 -95 0 0 -70z"/>
<path d="M20950 2268 l0 -193 -31 38 c-41 50 -100 79 -175 85 -126 10 -227
-55 -275 -174 -21 -52 -23 -75 -23 -204 0 -129 2 -152 23 -204 59 -148 184
-207 342 -160 40 12 65 28 96 61 l42 45 3 -54 3 -53 93 -3 92 -3 0 506 0 505
-95 0 -95 0 0 -192z m-73 -229 c81 -75 96 -294 27 -401 -32 -50 -75 -72 -131
-65 -90 10 -133 90 -133 247 0 132 35 217 100 243 33 14 110 0 137 -24z"/>
<path d="M15603 2415 c-218 -48 -333 -211 -333 -475 0 -269 121 -437 349 -486
178 -37 359 4 461 106 34 34 100 133 100 151 0 7 -170 73 -174 68 -2 -2 -11
-20 -21 -39 -40 -81 -112 -129 -206 -137 -108 -10 -198 29 -251 108 -37 55
-48 96 -55 199 -10 155 35 265 132 325 45 28 56 30 139 30 75 0 98 -4 132 -22
44 -23 98 -79 109 -112 6 -19 7 -19 91 4 47 13 88 26 91 29 11 10 -63 130
-101 163 -104 90 -289 126 -463 88z"/>
<path d="M8260 2401 c-129 -46 -169 -170 -109 -340 10 -30 18 -55 16 -56 -1
-1 -26 -15 -55 -31 -155 -82 -213 -253 -135 -395 79 -145 309 -182 500 -80
l51 28 70 -34 c77 -39 175 -53 225 -34 26 10 27 14 27 76 l0 66 -43 -6 c-46
-7 -110 6 -140 29 -18 14 -17 17 17 79 20 36 50 101 66 144 l29 80 -71 22
c-38 13 -71 21 -72 19 -1 -1 -14 -36 -29 -77 -15 -41 -39 -95 -54 -119 l-26
-46 -34 40 c-18 21 -56 72 -84 113 l-50 74 82 43 c94 49 144 93 170 149 43 94
4 196 -96 247 -58 30 -183 35 -255 9z m192 -131 c24 -30 23 -91 -1 -122 -11
-13 -47 -39 -80 -57 l-60 -32 -16 30 c-39 76 -28 167 24 197 37 21 110 12 133
-16z m-179 -457 c24 -38 65 -94 90 -125 26 -32 47 -62 47 -67 0 -17 -86 -51
-128 -51 -56 0 -102 20 -135 59 -36 43 -38 128 -6 176 17 24 69 69 86 74 1 1
22 -29 46 -66z"/>
<path d="M4573 1937 c-95 -260 -173 -476 -173 -480 0 -4 45 -7 99 -7 l99 0 42
125 42 125 183 0 183 0 43 -125 44 -125 99 0 c74 0 97 3 94 13 -3 6 -81 222
-174 479 l-169 468 -120 0 -120 0 -172 -473z m362 115 c36 -105 65 -194 65
-197 0 -3 -61 -5 -136 -5 -105 0 -135 3 -132 13 3 6 33 97 68 200 34 104 64
187 66 185 2 -2 33 -90 69 -196z"/>
<path d="M9303 1937 c-95 -260 -173 -476 -173 -480 0 -4 45 -7 99 -7 l99 0 42
125 42 125 183 0 183 0 43 -125 44 -125 99 0 c74 0 97 3 94 13 -3 6 -81 222
-174 479 l-169 468 -120 0 -120 0 -172 -473z m362 115 c36 -105 65 -194 65
-197 0 -3 -61 -5 -136 -5 -105 0 -135 3 -132 13 3 6 33 97 68 200 34 104 64
187 66 185 2 -2 33 -90 69 -196z"/>
<path d="M13956 2318 c-9 -24 -22 -61 -29 -83 -14 -39 -15 -40 -65 -43 l-52
-3 0 -65 0 -64 45 0 45 0 0 -239 c0 -254 5 -287 48 -334 43 -45 134 -59 242
-36 l50 11 0 58 0 59 -34 -6 c-51 -8 -84 4 -101 37 -12 23 -15 71 -15 240 l0
210 70 0 70 0 0 65 0 65 -70 0 -70 0 0 85 0 85 -59 0 -59 0 -16 -42z"/>
<path d="M18576 2318 c-9 -24 -22 -61 -29 -83 -14 -39 -15 -40 -65 -43 l-52
-3 0 -65 0 -64 45 0 45 0 0 -239 c0 -254 5 -287 48 -334 43 -45 134 -59 242
-36 l50 11 0 58 0 59 -34 -6 c-51 -8 -84 4 -101 37 -12 23 -15 71 -15 240 l0
210 70 0 70 0 0 65 0 65 -70 0 -70 0 0 85 0 85 -59 0 -59 0 -16 -42z"/>
<path d="M17970 2195 c-117 -32 -180 -108 -180 -215 0 -38 7 -67 23 -95 37
-65 86 -92 242 -130 160 -40 189 -56 193 -108 5 -62 -41 -88 -157 -86 -80 0
-122 17 -146 60 l-20 35 -78 -12 c-43 -7 -81 -15 -84 -18 -11 -11 40 -97 75
-126 60 -50 121 -65 257 -65 135 0 198 17 262 69 69 57 93 167 54 251 -36 78
-89 107 -275 151 -131 30 -168 52 -168 98 0 47 31 68 109 73 87 7 139 -13 156
-57 12 -30 12 -31 67 -25 120 13 120 13 96 68 -19 44 -72 92 -131 118 -65 29
-215 36 -295 14z"/>
<path d="M5548 2186 c-81 -30 -132 -86 -165 -179 -26 -75 -26 -289 1 -370 26
-80 90 -150 158 -173 107 -35 242 1 300 80 l31 41 -6 -98 c-6 -114 -26 -161
-77 -189 -68 -36 -166 -14 -196 44 l-16 30 -76 -7 c-124 -10 -125 -11 -92 -74
25 -51 82 -96 145 -118 70 -25 241 -25 312 0 69 24 135 84 164 149 24 53 24
55 27 461 l3 407 -89 0 c-100 0 -102 -1 -102 -80 l0 -35 -31 38 c-17 21 -50
47 -72 59 -53 27 -166 34 -219 14z m252 -151 c46 -44 65 -106 65 -210 0 -152
-48 -234 -142 -242 -39 -4 -55 0 -83 19 -60 40 -75 85 -75 223 0 137 15 182
76 223 47 33 118 27 159 -13z"/>
<path d="M7137 2190 c-82 -21 -145 -67 -178 -132 -10 -21 -19 -46 -19 -58 0
-19 6 -20 100 -20 95 0 100 1 100 21 0 35 53 79 95 79 79 0 115 -44 115 -140
l0 -48 -132 -4 c-111 -4 -142 -8 -186 -27 -95 -42 -140 -121 -129 -229 12
-114 81 -180 201 -189 106 -9 186 30 254 122 l21 30 1 -25 c0 -40 37 -90 78
-107 27 -11 55 -14 105 -10 37 3 72 9 77 12 6 3 10 26 10 51 l0 44 -40 0 c-60
0 -64 13 -70 260 -6 236 -8 246 -72 307 -18 18 -51 40 -73 49 -47 20 -201 28
-258 14z m213 -442 c0 -53 -33 -122 -72 -149 -16 -12 -49 -24 -72 -26 -35 -4
-47 -1 -72 20 -25 22 -29 32 -29 80 0 90 37 114 173 116 l72 1 0 -42z"/>
<path d="M10450 2184 c-42 -18 -95 -67 -118 -109 l-17 -30 -5 70 -5 70 -94 3
-94 3 7 -32 c3 -17 6 -184 6 -370 l0 -339 94 0 95 0 3 243 c3 227 4 245 25
287 49 99 149 107 193 15 18 -38 20 -61 20 -293 l0 -252 94 0 94 0 4 238 c3
201 7 244 22 280 56 130 185 120 215 -16 6 -31 11 -149 11 -277 l0 -225 95 0
95 0 0 255 c0 265 -7 333 -42 397 -78 139 -305 130 -383 -16 -23 -42 -31 -45
-39 -12 -9 37 -56 87 -101 107 -48 22 -127 24 -175 3z"/>
<path d="M12590 2186 c-67 -19 -102 -40 -144 -87 -50 -55 -74 -112 -86 -201
-25 -200 46 -368 182 -429 45 -20 69 -24 158 -24 88 0 113 4 155 23 59 27 119
82 146 134 l19 37 -33 5 c-17 3 -58 7 -90 10 -56 4 -58 4 -73 -25 -28 -54
-114 -74 -180 -43 -45 21 -74 71 -81 139 l-6 55 238 0 238 0 -6 73 c-16 183
-89 293 -220 332 -60 18 -154 18 -217 1z m178 -126 c36 -22 71 -88 72 -132 l0
-28 -140 0 -140 0 0 28 c1 77 69 152 140 152 19 0 50 -9 68 -20z"/>
<path d="M13436 2186 c-55 -21 -86 -45 -121 -97 l-30 -44 -5 70 -5 70 -94 3
-94 3 7 -38 c3 -21 6 -188 6 -370 l0 -333 94 0 95 0 3 243 3 242 27 46 c61
103 181 105 236 4 14 -25 17 -72 20 -282 l4 -253 95 0 94 0 -3 283 c-3 269 -4
284 -26 332 -29 62 -47 82 -97 108 -52 26 -156 33 -209 13z"/>
<path d="M14470 2186 c-67 -19 -102 -40 -144 -87 -50 -55 -74 -112 -86 -201
-25 -200 46 -368 182 -429 45 -20 69 -24 158 -24 88 0 113 4 155 23 59 27 119
82 146 134 l19 37 -33 5 c-17 3 -58 7 -90 10 -56 4 -58 4 -73 -25 -28 -54
-114 -74 -180 -43 -45 21 -74 71 -81 139 l-6 55 238 0 238 0 -6 73 c-16 183
-89 293 -220 332 -60 18 -154 18 -217 1z m178 -126 c36 -22 71 -88 72 -132 l0
-28 -140 0 -140 0 0 28 c1 77 69 152 140 152 19 0 50 -9 68 -20z"/>
<path d="M16457 2190 c-105 -27 -200 -108 -232 -198 -41 -116 -37 -255 10
-360 33 -74 82 -123 160 -159 54 -25 71 -28 165 -28 131 0 192 20 265 87 69
63 105 143 112 249 10 136 -27 257 -99 326 -60 57 -139 86 -247 89 -53 2 -113
-1 -134 -6z m193 -142 c18 -13 41 -34 52 -48 45 -62 49 -253 6 -338 -30 -61
-65 -84 -130 -89 -72 -6 -115 19 -148 83 -23 44 -25 60 -25 169 0 109 2 124
24 162 45 78 153 107 221 61z"/>
<path d="M17366 2186 c-55 -21 -86 -45 -121 -97 l-30 -44 -5 70 -5 70 -94 3
-94 3 7 -38 c3 -21 6 -188 6 -370 l0 -333 94 0 95 0 3 243 3 242 27 46 c61
103 181 105 236 4 14 -25 17 -72 20 -282 l4 -253 95 0 94 0 -3 283 c-3 269 -4
284 -26 332 -29 62 -47 82 -97 108 -52 26 -156 33 -209 13z"/>
<path d="M19205 2186 c-39 -17 -59 -41 -87 -101 l-23 -50 -5 75 -5 75 -94 3
-94 3 7 -38 c3 -21 6 -188 6 -370 l0 -333 94 0 95 0 3 233 c3 212 5 235 24
272 11 22 36 51 55 63 28 20 44 23 92 20 l58 -4 -3 80 -3 81 -45 2 c-25 2 -58
-3 -75 -11z"/>
<path d="M21487 2190 c-105 -27 -200 -108 -232 -198 -41 -116 -37 -255 10
-360 33 -74 82 -123 160 -159 54 -25 71 -28 165 -28 131 0 192 20 265 87 69
63 105 143 112 249 10 136 -27 257 -99 326 -60 57 -139 86 -247 89 -53 2 -113
-1 -134 -6z m193 -142 c18 -13 41 -34 52 -48 45 -62 49 -253 6 -338 -30 -61
-65 -84 -130 -89 -72 -6 -115 19 -148 83 -23 44 -25 60 -25 169 0 109 2 124
24 162 45 78 153 107 221 61z"/>
<path d="M6172 1898 c3 -279 4 -295 25 -334 44 -82 116 -124 214 -124 89 0
151 33 209 112 l27 38 7 -70 7 -70 90 0 89 0 0 370 0 370 -94 0 -94 0 -3 -232
c-4 -225 -5 -235 -29 -283 -55 -111 -175 -129 -233 -36 -21 34 -22 48 -25 294
l-3 257 -95 0 -95 0 3 -292z"/>
<path d="M12080 1820 l0 -370 95 0 95 0 0 370 0 370 -95 0 -95 0 0 -370z"/>
<path d="M19372 1898 c3 -279 4 -295 25 -334 44 -82 116 -124 214 -124 89 0
151 33 209 112 l27 38 7 -70 7 -70 90 0 89 0 0 370 0 370 -94 0 -94 0 -3 -232
c-4 -225 -5 -235 -29 -283 -55 -111 -175 -129 -233 -36 -21 34 -22 48 -25 294
l-3 257 -95 0 -95 0 3 -292z"/>
<path d="M20170 1820 l0 -370 95 0 95 0 0 370 0 370 -95 0 -95 0 0 -370z"/>
</g>
</svg>
