<?xml version="1.0" standalone="no"?>
<!DOCTYPE svg PUBLIC "-//W3C//DTD SVG 20010904//EN"
 "http://www.w3.org/TR/2001/REC-SVG-20010904/DTD/svg10.dtd">
<svg version="1.0" xmlns="http://www.w3.org/2000/svg"
 width="450" height="178" viewBox="0 100 450 178"
 preserveAspectRatio="xMidYMid meet">

<g transform="translate(0.000000,450.000000) scale(0.100000,-0.100000)"
fill="white" stroke="none">
<path d="M1123 720 c-17 -10 -37 -28 -43 -39 -7 -13 -9 -102 -8 -258 l3 -238
25 0 25 0 3 163 2 162 70 0 c58 0 71 3 80 19 17 34 -12 51 -86 51 -70 0 -78 9
-53 64 13 27 35 36 91 36 38 0 60 21 51 48 -8 20 -122 15 -160 -8z"/>
<path d="M1351 562 c-19 -9 -48 -34 -65 -55 -29 -36 -31 -44 -31 -122 0 -78 2
-85 31 -122 46 -57 86 -76 156 -76 44 0 66 5 87 21 l29 21 6 -25 c5 -20 12
-25 34 -22 l27 3 0 135 c0 124 -2 138 -23 173 -49 79 -168 112 -251 69z m173
-81 c28 -29 31 -37 34 -111 4 -70 2 -80 -13 -80 -9 0 -28 -9 -42 -20 -46 -36
-137 -18 -164 31 -36 69 -29 136 18 181 37 33 50 38 97 33 27 -2 49 -13 70
-34z"/>
<path d="M1767 560 c-20 -11 -49 -39 -65 -62 -27 -41 -27 -42 -30 -248 -3
-177 -1 -209 12 -219 9 -7 23 -11 31 -7 12 4 15 25 15 106 0 98 6 114 29 86 6
-8 31 -19 55 -25 126 -32 236 59 236 194 0 68 -26 123 -76 162 -50 37 -150 44
-207 13z m174 -76 c49 -47 57 -114 20 -183 -27 -49 -113 -66 -166 -31 -16 11
-38 17 -47 14 -16 -5 -18 1 -18 43 1 96 30 160 85 184 35 15 95 3 126 -27z"/>
</g>
</svg>
